<?xml version="1.0" encoding="utf-8"?>
<!-- Generator: Adobe Illustrator 16.0.2, SVG Export Plug-In . SVG Version: 6.00 Build 0)  -->
<!DOCTYPE svg PUBLIC "-//W3C//DTD SVG 1.1//EN" "http://www.w3.org/Graphics/SVG/1.1/DTD/svg11.dtd">
<svg version="1.1" id="Layer_1" xmlns="http://www.w3.org/2000/svg" xmlns:xlink="http://www.w3.org/1999/xlink" x="0px" y="0px"
	 width="84.252px" height="160.245px" viewBox="0 0 84.252 160.245" enable-background="new 0 0 84.252 160.245"
	 xml:space="preserve">
<g>
	<g>
		<path fill="#004987" d="M51.788,152.128c-1.933,5.122-3.672,8.117-9.662,8.117c-6.473,0-8.019-3.865-9.662-8.117l-17.294-45.12
			c-0.29-0.773-1.063-2.223-1.643-2.223c-1.063,0-1.063,1.739-1.063,2.028l0.29,52.658H0V99.954c0-8.792,8.986-8.889,10.918-8.889
			c7.826,0,10.048,3.96,11.884,8.695l17.488,45.122c0.58,1.448,1.256,2.512,1.836,2.512s1.256-1.063,1.836-2.512l17.487-45.122
			c2.899-7.632,7.054-8.695,11.885-8.695c6.28,0,10.918,2.705,10.918,8.889v59.518H71.498l0.387-52.658
			c0-1.835-0.772-2.028-1.159-2.028c-0.677,0-1.353,1.449-1.643,2.223L51.788,152.128z"/>
	</g>
	<path fill="#FF8300" d="M0,87.903c0.183-0.118,0.372-0.23,0.562-0.341c2.537-1.896,6.021-2.94,10.245-2.94
		c5.245,0,8.659,1.593,10.964,3.69c3.896,2.838,5.479,6.911,6.435,9.376l13.749,35.475l13.741-35.456
		c2.079-5.464,4.907-8.59,7.947-10.362c3.056-2.275,6.492-2.723,9.72-2.723c4.592,0,8.314,1.231,10.89,3.453
		C74.073,69.799,58.907,54.116,56.056,47.394c-2.907-6.822,0.214-14.912,0.715-16c-0.561,0.481-7.878,6.959-6.458,17.973
		c1.135,8.792,4.266,20.862,4.266,20.862c-6.234-12.916-16.417-29.026-18.344-46.826C35.158,13.369,38.668,0,38.668,0
		c-4.682,5.873-7.712,15.983-7.807,29.273c-0.103,13.294,6.953,30.229,6.923,34.235c-0.032,4.013,0.537,12.666-8.748,12.6
		c-0.628-0.007-6.959-0.057-6.897-8.283c0.085-11.814,5.35-10.93,5.452-24.224c0.048-6.329-4.138-11.003-4.138-11.003
		c1.455,2.755,1.849,6.551,1.829,9.298C25.18,55.87,9.958,67.816,0,87.903z"/>
</g>
</svg>
